# xmcd
#
# Track frame offsets: 
#        150
#        40461
#        75773
#        102356
#        124400
#        145783
#        168025
#        179131
#        210727
#        236094
#        255634
#        285370
#        306205
#        331470
#
# Disc length: 4783 seconds
#
# Revision: 0
# Processed by: cddbd v1.5.2PL0 Copyright (c) Steve Scherf et al.
# Submitted via: ExactAudioCopy v1.0b1
#
DISCID=c512ad0e
DTITLE=Andrey Klimkovsky - Star Triangle
DYEAR=2001
DGENRE=New Age
TTITLE0=Triangular Navigation
TTITLE1=We continue the search
TTITLE2=Andromeda
TTITLE3=Comets Wnt Forever
TTITLE4=Milky Way
TTITLE5=Corona Borealis
TTITLE6=Minute Oblivion
TTITLE7=Sombrero
TTITLE8=MoonMachine
TTITLE9=Summer Triangle
TTITLE10=Where no one was
TTITLE11=Time for lover Hearts
TTITLE12=Starry Wind
TTITLE13=Last august night
EXTD=
EXTT0=
EXTT1=
EXTT2=
EXTT3=
EXTT4=
EXTT5=
EXTT6=
EXTT7=
EXTT8=
EXTT9=
EXTT10=
EXTT11=
EXTT12=
EXTT13=
PLAYORDER=
